<svg version="1.1" id="Layer_1" xmlns="http://www.w3.org/2000/svg" xmlns:xlink="http://www.w3.org/1999/xlink" x="0px" y="0px"
	 width="100%" viewBox="0 0 351 346" enable-background="new 0 0 351 346" xml:space="preserve">
<path fill="#0A4D7F" opacity="1.000000" stroke="none" 
	d="
M208.000000,1.000000 
	C214.021149,1.000000 220.042297,1.000000 226.697479,1.383001 
	C251.486435,4.679232 272.155701,14.197929 286.131866,34.805588 
	C300.152069,55.478111 300.895142,78.236069 294.395874,101.753639 
	C309.693359,107.523796 323.007660,116.110756 333.144073,128.846634 
	C337.734711,134.614532 341.725525,141.068954 344.833344,147.749313 
	C347.967438,154.486176 349.670166,161.888977 352.000000,169.000000 
	C352.000000,178.354233 352.000000,187.708450 351.637390,197.643417 
	C350.924591,198.579300 350.349304,198.884018 350.256836,199.296890 
	C347.227600,212.819748 340.179596,223.689011 329.283813,232.286926 
	C313.711426,244.575165 295.850250,251.592697 276.330597,251.781708 
	C215.054947,252.375031 153.768799,251.798401 92.489273,252.136246 
	C76.388664,252.225006 60.898457,250.326523 46.120087,243.940277 
	C29.260586,236.654724 15.022951,226.216187 7.086911,209.010559 
	C4.574425,203.563400 3.002409,197.682434 1.000000,192.000000 
	C1.000000,183.312439 1.000000,174.624863 1.370305,165.349258 
	C2.154884,164.081024 2.837403,163.440170 2.943779,162.714828 
	C5.021404,148.548355 11.797184,136.716705 21.244549,126.308205 
	C31.378374,115.143402 43.945919,107.543633 57.961773,102.366730 
	C53.319546,81.842537 54.856163,63.038246 74.408577,47.342876 
	C99.190765,27.449390 124.645920,28.543375 149.338013,47.872784 
	C151.205627,44.681210 152.863159,41.708691 154.651321,38.816967 
	C162.598633,25.965050 172.307114,14.772421 186.329880,8.426551 
	C193.255264,5.292541 200.758331,3.435073 208.000000,1.000000 
M137.608948,173.008026 
	C133.621597,173.665878 129.634247,174.323746 124.431427,175.182144 
	C123.950119,167.140198 122.222229,159.180923 123.264961,151.602890 
	C125.934448,132.202530 135.250580,115.643448 148.879150,101.795326 
	C159.304016,91.202515 171.774368,83.261368 185.506088,77.479706 
	C181.385681,76.697189 177.434387,75.549728 173.424835,75.285164 
	C168.336365,74.949417 162.161011,73.501999 158.264633,75.717590 
	C141.101517,85.476997 127.310493,99.117844 116.551048,115.822220 
	C110.355103,125.441612 108.334984,137.519211 99.007568,145.295990 
	C97.553947,146.507950 96.103859,148.251541 95.632195,150.011871 
	C94.374268,154.706696 92.739296,159.579819 92.922256,164.317642 
	C93.215828,171.919754 98.764320,176.225906 105.061485,179.666306 
	C106.812943,180.623169 108.239899,182.394928 109.464371,184.052414 
	C112.641289,188.352783 115.050865,193.371017 118.778366,197.088287 
	C137.852966,216.110550 160.996933,219.866226 186.161499,213.288162 
	C211.762451,206.596024 231.891617,191.326950 248.809158,171.587540 
	C244.970535,168.155838 242.978943,171.251434 240.985611,173.584808 
	C236.374222,178.982849 235.693558,179.159195 229.944717,175.438354 
	C228.717514,174.644073 227.474136,173.871872 226.278595,173.032013 
	C219.967545,168.598495 213.669418,164.146606 207.083450,159.501221 
	C211.082962,156.277512 214.076935,153.795013 217.143097,151.405197 
	C228.968765,142.188019 238.303757,130.996017 244.338974,117.187469 
	C248.865433,106.830917 247.253967,97.293800 239.096664,91.853096 
	C234.233917,88.609756 228.415314,86.799530 223.235321,84.440201 
	C219.868256,88.602898 217.061081,92.073402 213.884979,96.000000 
	C215.961044,96.000000 217.280106,95.992081 218.599030,96.001274 
	C228.027710,96.066986 231.556564,99.494698 230.870026,108.839310 
	C230.630371,112.101234 229.349594,115.502541 227.759598,118.411255 
	C221.539719,129.789764 212.022461,138.171204 201.082794,146.906357 
	C199.196426,138.868240 199.260132,131.755020 202.047699,124.895660 
	C204.780624,118.170792 208.119568,111.692192 211.542923,104.354485 
	C209.455246,105.121658 207.380417,105.263168 206.330521,106.373680 
	C200.759445,112.266449 195.808945,118.781883 189.967300,124.375450 
	C177.717087,136.105392 162.856262,139.740921 146.255997,137.128983 
	C144.669281,136.879333 142.949646,137.474350 140.182587,137.812973 
	C148.606186,140.471130 156.016220,142.150177 162.856186,145.135391 
	C171.330154,148.833725 173.598419,152.479599 173.697784,163.657730 
	C162.132233,166.727615 150.315170,169.864243 137.608948,173.008026 
M181.182816,121.256393 
	C181.325806,118.217674 182.233505,114.957268 181.431976,112.192360 
	C180.240204,108.081276 174.279877,105.279671 170.319748,106.022087 
	C165.858093,106.858528 161.241867,111.856026 161.002838,116.108482 
	C160.790482,119.886688 164.777695,125.621552 168.438995,126.804054 
	C172.657715,128.166611 178.067307,125.990982 181.182816,121.256393 
z"/>
<path fill="#FFFFFF" opacity="1.000000" stroke="none" 
	d="
M1.000000,192.468658 
	C3.002409,197.682434 4.574425,203.563400 7.086911,209.010559 
	C15.022951,226.216187 29.260586,236.654724 46.120087,243.940277 
	C60.898457,250.326523 76.388664,252.225006 92.489273,252.136246 
	C153.768799,251.798401 215.054947,252.375031 276.330597,251.781708 
	C295.850250,251.592697 313.711426,244.575165 329.283813,232.286926 
	C340.179596,223.689011 347.227600,212.819748 350.256836,199.296890 
	C350.349304,198.884018 350.924591,198.579300 351.637390,198.112076 
	C352.000000,246.354233 352.000000,294.708466 351.657654,343.420685 
	C347.099884,335.930939 343.369202,327.764404 338.493469,320.350922 
	C335.399872,315.647125 336.914429,313.038239 339.853088,309.494537 
	C343.510681,305.083832 346.575104,300.181274 350.243378,295.000000 
	C345.642059,295.000000 341.968292,295.160400 338.316711,294.944733 
	C335.796722,294.795929 334.151398,295.453247 332.731262,297.683502 
	C330.022522,301.937439 326.963318,305.968231 324.049622,310.091644 
	C323.704407,309.989349 323.359161,309.887054 323.013947,309.784760 
	C323.013947,299.277588 323.013947,288.770416 323.013947,278.322479 
	C318.012115,278.322479 313.615723,278.322479 309.345459,278.322479 
	C309.345459,301.041168 309.345459,323.435822 309.345459,345.625031 
	C314.097931,345.625031 318.499115,345.625031 322.450867,345.625031 
	C324.724548,339.429596 319.730713,332.091980 326.858246,326.946381 
	C328.993927,331.052032 331.241974,334.660675 332.802612,338.545441 
	C334.992065,343.995483 338.143646,347.189423 344.514130,346.069275 
	C346.938538,345.642975 349.500641,346.000000 352.000000,346.000000 
	C350.670929,346.333344 349.342133,346.957031 348.012787,346.958191 
	C292.987640,347.006989 237.962479,347.000000 182.590302,346.649658 
	C184.951584,344.907227 188.645355,344.209595 190.199432,342.004181 
	C197.349930,331.856934 194.541351,319.855652 182.629364,316.014221 
	C179.413193,314.976990 176.007339,314.329956 173.030106,312.827179 
	C171.349167,311.978729 169.755432,309.905609 169.296921,308.087891 
	C169.028580,307.024078 170.808365,304.665863 172.140930,304.173737 
	C173.791641,303.564056 176.528152,303.586212 177.717606,304.600098 
	C179.326950,305.971924 179.911667,308.545746 180.980362,310.693024 
	C184.715652,310.693024 188.800049,310.693024 192.866455,310.693024 
	C193.246033,299.368988 188.144547,294.102325 178.876556,293.999908 
	C176.044800,293.968628 173.199234,293.822693 170.382797,294.033691 
	C163.184357,294.572968 157.214767,299.304016 156.022964,305.203369 
	C154.386078,313.305939 157.630203,319.612183 165.451431,323.032135 
	C168.979462,324.574829 172.649872,325.815552 176.313461,327.017151 
	C179.345306,328.011566 180.887207,330.129242 179.849243,332.969421 
	C179.168503,334.832092 177.194138,337.291565 175.578201,337.468750 
	C173.615997,337.683899 171.002838,336.198822 169.456299,334.660309 
	C168.162018,333.372681 167.996857,330.950134 167.407944,329.250183 
	C163.534088,329.250183 159.927399,329.250183 156.358536,329.250183 
	C155.309586,339.975128 156.639847,342.383484 166.000000,347.000000 
	C157.979095,347.000000 149.958191,347.000000 141.587524,346.651794 
	C147.056503,344.675079 151.666229,340.021210 151.953110,334.929260 
	C152.420532,326.633057 152.263046,320.694611 144.294540,317.717865 
	C140.219604,316.195526 136.193085,314.543304 132.114838,313.030243 
	C129.382050,312.016327 127.168121,310.058441 128.240936,307.322357 
	C128.966370,305.472198 131.710358,303.396637 133.598160,303.350952 
	C135.027466,303.316376 136.507217,306.350098 138.009048,307.977234 
	C138.973633,309.022278 139.930527,310.723328 141.044891,310.858276 
	C144.270584,311.248962 147.574127,310.996552 150.799530,310.996552 
	C151.294968,301.341156 148.477951,295.645966 141.440552,294.378296 
	C136.158112,293.426788 130.407471,293.610657 125.103813,294.586060 
	C117.277565,296.025421 114.766739,301.590302 114.124863,308.167023 
	C113.506516,314.502808 116.330452,319.733032 122.197548,322.563202 
	C126.097961,324.444611 130.417023,325.437988 134.465210,327.039825 
	C137.543594,328.257904 140.248703,330.015228 138.451309,334.045502 
	C136.870209,337.590790 133.754959,338.931244 130.718094,336.833832 
	C128.457840,335.272736 127.290070,332.129883 125.412827,329.362946 
	C122.231438,329.362946 118.164879,329.362946 114.251793,329.362946 
	C112.839340,338.098846 116.488274,343.655243 124.000000,347.000000 
	C112.645775,347.000000 101.291542,347.000000 89.572723,346.663635 
	C91.070518,345.351410 92.932899,344.375519 94.493279,343.557892 
	C99.037720,348.186554 104.587936,344.991547 109.000534,345.999023 
	C108.648727,341.604889 108.109756,337.556915 108.044060,333.501312 
	C107.901253,324.685822 107.905144,315.865082 108.034523,307.049225 
	C108.115891,301.504822 105.782402,296.959412 100.746750,295.550903 
	C95.488861,294.080200 89.724846,294.188751 84.171486,294.058441 
	C75.807892,293.862213 69.648087,302.105652 71.577087,310.751068 
	C75.668724,310.751068 79.762024,310.751068 83.823616,310.751068 
	C83.898766,310.173096 84.013550,309.834534 83.973549,309.515350 
	C83.467087,305.474701 86.184204,303.363281 89.297203,303.319702 
	C90.983360,303.296112 93.512207,305.997437 94.240036,307.988861 
	C95.436943,311.263672 93.203888,313.265045 89.945763,314.048950 
	C87.448311,314.649841 84.978447,315.364594 82.491592,316.010529 
	C77.162872,317.394653 72.094521,319.587341 70.415581,325.226593 
	C68.141922,332.863342 68.757057,341.729736 77.000000,347.000000 
	C62.312439,347.000000 47.624878,347.000000 32.588867,346.650818 
	C42.499809,343.445862 48.162975,332.107941 45.291573,320.170990 
	C41.001411,320.170715 36.711910,320.170715 32.190739,320.170715 
	C31.770422,323.170959 31.676455,326.126801 30.890131,328.885315 
	C29.870956,332.460693 28.812809,336.066376 23.688555,336.097931 
	C18.792427,336.128052 17.242327,333.275177 17.052345,329.376129 
	C16.546673,318.998108 16.242531,308.606232 16.123167,298.216858 
	C16.100525,296.246368 16.830597,293.884521 18.049240,292.380493 
	C19.534525,290.547363 22.016729,288.167938 23.860346,288.333557 
	C26.001348,288.525879 28.662392,290.838074 29.741165,292.929779 
	C31.068743,295.503845 30.995644,298.800323 31.514160,301.707397 
	C36.389759,301.707397 41.134792,301.707397 45.849262,301.707397 
	C45.540783,298.003876 45.715717,294.466400 44.834019,291.215485 
	C44.060879,288.364899 42.422924,285.590454 40.604145,283.212921 
	C36.001724,277.196564 29.277664,276.689117 22.422901,277.014496 
	C10.107129,277.599121 5.863698,282.839325 2.943781,292.019165 
	C2.693517,292.805939 1.666295,293.345551 1.000001,294.000000 
	C1.000000,260.312439 1.000000,226.624878 1.000000,192.468658 
M277.003204,296.039246 
	C272.452545,295.563141 267.901855,295.087067 263.294312,294.605042 
	C263.294312,312.297821 263.294312,329.011505 263.294312,345.681915 
	C267.989075,345.681915 272.381073,345.681915 276.999725,345.681915 
	C276.999725,344.385620 276.999725,343.406769 276.999725,342.427887 
	C276.999908,332.276489 276.951111,322.124725 277.023895,311.973877 
	C277.053741,307.813568 280.322968,303.812653 283.535339,304.060455 
	C288.097778,304.412323 288.091614,307.700470 288.049896,311.257294 
	C287.915771,322.693085 288.000000,334.131409 288.000000,345.760559 
	C292.826752,345.760559 297.218475,345.760559 302.000000,345.760559 
	C302.000000,332.251129 301.712585,318.969147 302.104462,305.707184 
	C302.351807,297.335541 295.680664,291.857849 286.490509,293.892548 
	C283.387054,294.579620 280.403809,295.809418 277.003204,296.039246 
M200.000000,297.500427 
	C200.000000,313.593018 200.000000,329.685638 200.000000,345.652679 
	C213.044861,345.652679 225.445450,345.652679 237.619583,345.652679 
	C237.619583,341.566620 237.619583,337.834656 237.619583,333.826111 
	C229.626251,333.826111 222.011093,333.826111 213.941940,333.826111 
	C213.941940,315.139709 213.941940,296.738617 213.941940,278.291443 
	C209.075241,278.291443 204.678528,278.291443 200.000000,278.291443 
	C200.000000,284.552795 200.000000,290.526733 200.000000,297.500427 
M65.000000,284.584290 
	C65.000000,282.484314 65.000000,280.384369 65.000000,278.307312 
	C60.030937,278.307312 55.640266,278.307312 51.288620,278.307312 
	C51.288620,300.981567 51.288620,323.347229 51.288620,345.690247 
	C55.973808,345.690247 60.364544,345.690247 65.000000,345.690247 
	C65.000000,325.443848 65.000000,305.506195 65.000000,284.584290 
M257.000000,309.504822 
	C257.000000,304.750732 257.000000,299.996613 257.000000,295.323303 
	C251.995300,295.323303 247.606232,295.323303 243.304779,295.323303 
	C243.304779,312.348083 243.304779,329.047882 243.304779,345.677002 
	C248.004181,345.677002 252.393234,345.677002 257.000000,345.677002 
	C257.000000,333.738068 257.000000,322.120850 257.000000,309.504822 
M256.999878,286.373840 
	C256.999878,283.633698 256.999878,280.893524 256.999878,278.346680 
	C251.918503,278.346680 247.536469,278.346680 243.354004,278.346680 
	C243.354004,282.416260 243.354004,286.133453 243.354004,289.998932 
	C247.176620,289.998932 250.665878,290.200439 254.105621,289.876465 
	C255.140717,289.778961 256.038147,288.219849 256.999878,286.373840 
z"/>
<path fill="#FFFFFF" opacity="1.000000" stroke="none" 
	d="
M207.531342,1.000000 
	C200.758331,3.435073 193.255264,5.292541 186.329880,8.426551 
	C172.307114,14.772421 162.598633,25.965050 154.651321,38.816967 
	C152.863159,41.708691 151.205627,44.681210 149.338013,47.872784 
	C124.645920,28.543375 99.190765,27.449390 74.408577,47.342876 
	C54.856163,63.038246 53.319546,81.842537 57.961773,102.366730 
	C43.945919,107.543633 31.378374,115.143402 21.244549,126.308205 
	C11.797184,136.716705 5.021404,148.548355 2.943779,162.714828 
	C2.837403,163.440170 2.154884,164.081024 1.370305,164.880615 
	C1.000000,110.397850 1.000000,55.795700 1.000000,1.000000 
	C69.687439,1.000000 138.375061,1.000000 207.531342,1.000000 
z"/>
<path fill="#FFFFFF" opacity="1.000000" stroke="none" 
	d="
M352.000000,168.531342 
	C349.670166,161.888977 347.967438,154.486176 344.833344,147.749313 
	C341.725525,141.068954 337.734711,134.614532 333.144073,128.846634 
	C323.007660,116.110756 309.693359,107.523796 294.395874,101.753639 
	C300.895142,78.236069 300.152069,55.478111 286.131866,34.805588 
	C272.155701,14.197929 251.486435,4.679232 227.165756,1.383001 
	C268.604370,1.000000 310.208740,1.000000 352.000000,1.000000 
	C352.000000,56.687420 352.000000,112.375053 352.000000,168.531342 
z"/>
<path fill="#0A4D7F" opacity="1.000000" stroke="none" 
	d="
M1.000001,294.468658 
	C1.666295,293.345551 2.693517,292.805939 2.943781,292.019165 
	C5.863698,282.839325 10.107129,277.599121 22.422901,277.014496 
	C29.277664,276.689117 36.001724,277.196564 40.604145,283.212921 
	C42.422924,285.590454 44.060879,288.364899 44.834019,291.215485 
	C45.715717,294.466400 45.540783,298.003876 45.849262,301.707397 
	C41.134792,301.707397 36.389759,301.707397 31.514160,301.707397 
	C30.995644,298.800323 31.068743,295.503845 29.741165,292.929779 
	C28.662392,290.838074 26.001348,288.525879 23.860346,288.333557 
	C22.016729,288.167938 19.534525,290.547363 18.049240,292.380493 
	C16.830597,293.884521 16.100525,296.246368 16.123167,298.216858 
	C16.242531,308.606232 16.546673,318.998108 17.052345,329.376129 
	C17.242327,333.275177 18.792427,336.128052 23.688555,336.097931 
	C28.812809,336.066376 29.870956,332.460693 30.890131,328.885315 
	C31.676455,326.126801 31.770422,323.170959 32.190739,320.170715 
	C36.711910,320.170715 41.001411,320.170715 45.291573,320.170990 
	C48.162975,332.107941 42.499809,343.445862 32.120209,346.650818 
	C26.977907,347.000000 21.955816,347.000000 16.346426,346.650635 
	C12.899573,344.429901 9.383449,343.088013 7.342197,340.556763 
	C4.626757,337.189484 3.060150,332.895721 0.999999,329.000000 
	C1.000000,317.645782 1.000000,306.291534 1.000001,294.468658 
z"/>
<path fill="#0A4D7F" opacity="1.000000" stroke="none" 
	d="
M352.000000,345.666687 
	C349.500641,346.000000 346.938538,345.642975 344.514130,346.069275 
	C338.143646,347.189423 334.992065,343.995483 332.802612,338.545441 
	C331.241974,334.660675 328.993927,331.052032 326.858246,326.946381 
	C319.730713,332.091980 324.724548,339.429596 322.450867,345.625031 
	C318.499115,345.625031 314.097931,345.625031 309.345459,345.625031 
	C309.345459,323.435822 309.345459,301.041168 309.345459,278.322479 
	C313.615723,278.322479 318.012115,278.322479 323.013947,278.322479 
	C323.013947,288.770416 323.013947,299.277588 323.013947,309.784760 
	C323.359161,309.887054 323.704407,309.989349 324.049622,310.091644 
	C326.963318,305.968231 330.022522,301.937439 332.731262,297.683502 
	C334.151398,295.453247 335.796722,294.795929 338.316711,294.944733 
	C341.968292,295.160400 345.642059,295.000000 350.243378,295.000000 
	C346.575104,300.181274 343.510681,305.083832 339.853088,309.494537 
	C336.914429,313.038239 335.399872,315.647125 338.493469,320.350922 
	C343.369202,327.764404 347.099884,335.930939 351.657654,343.889343 
	C352.000000,344.444458 352.000000,344.888885 352.000000,345.666687 
z"/>
<path fill="#0A4D7F" opacity="1.000000" stroke="none" 
	d="
M77.460632,347.000000 
	C68.757057,341.729736 68.141922,332.863342 70.415581,325.226593 
	C72.094521,319.587341 77.162872,317.394653 82.491592,316.010529 
	C84.978447,315.364594 87.448311,314.649841 89.945763,314.048950 
	C93.203888,313.265045 95.436943,311.263672 94.240036,307.988861 
	C93.512207,305.997437 90.983360,303.296112 89.297203,303.319702 
	C86.184204,303.363281 83.467087,305.474701 83.973549,309.515350 
	C84.013550,309.834534 83.898766,310.173096 83.823616,310.751068 
	C79.762024,310.751068 75.668724,310.751068 71.577087,310.751068 
	C69.648087,302.105652 75.807892,293.862213 84.171486,294.058441 
	C89.724846,294.188751 95.488861,294.080200 100.746750,295.550903 
	C105.782402,296.959412 108.115891,301.504822 108.034523,307.049225 
	C107.905144,315.865082 107.901253,324.685822 108.044060,333.501312 
	C108.109756,337.556915 108.648727,341.604889 109.000534,345.999023 
	C104.587936,344.991547 99.037720,348.186554 94.493279,343.557892 
	C92.932899,344.375519 91.070518,345.351410 89.104065,346.663635 
	C85.307091,347.000000 81.614182,347.000000 77.460632,347.000000 
M83.799988,335.237549 
	C85.567474,337.780151 88.248878,338.137634 90.463264,336.722504 
	C95.918785,333.236206 95.206230,327.645935 94.777885,322.185455 
	C84.470612,325.026398 82.275230,324.824005 83.799988,335.237549 
z"/>
<path fill="#0A4D7F" opacity="1.000000" stroke="none" 
	d="
M124.467606,347.000000 
	C116.488274,343.655243 112.839340,338.098846 114.251793,329.362946 
	C118.164879,329.362946 122.231438,329.362946 125.412827,329.362946 
	C127.290070,332.129883 128.457840,335.272736 130.718094,336.833832 
	C133.754959,338.931244 136.870209,337.590790 138.451309,334.045502 
	C140.248703,330.015228 137.543594,328.257904 134.465210,327.039825 
	C130.417023,325.437988 126.097961,324.444611 122.197548,322.563202 
	C116.330452,319.733032 113.506516,314.502808 114.124863,308.167023 
	C114.766739,301.590302 117.277565,296.025421 125.103813,294.586060 
	C130.407471,293.610657 136.158112,293.426788 141.440552,294.378296 
	C148.477951,295.645966 151.294968,301.341156 150.799530,310.996552 
	C147.574127,310.996552 144.270584,311.248962 141.044891,310.858276 
	C139.930527,310.723328 138.973633,309.022278 138.009048,307.977234 
	C136.507217,306.350098 135.027466,303.316376 133.598160,303.350952 
	C131.710358,303.396637 128.966370,305.472198 128.240936,307.322357 
	C127.168121,310.058441 129.382050,312.016327 132.114838,313.030243 
	C136.193085,314.543304 140.219604,316.195526 144.294540,317.717865 
	C152.263046,320.694611 152.420532,326.633057 151.953110,334.929260 
	C151.666229,340.021210 147.056503,344.675079 141.118881,346.651794 
	C135.645065,347.000000 130.290146,347.000000 124.467606,347.000000 
z"/>
<path fill="#0A4D7F" opacity="1.000000" stroke="none" 
	d="
M166.466858,347.000000 
	C156.639847,342.383484 155.309586,339.975128 156.358536,329.250183 
	C159.927399,329.250183 163.534088,329.250183 167.407944,329.250183 
	C167.996857,330.950134 168.162018,333.372681 169.456299,334.660309 
	C171.002838,336.198822 173.615997,337.683899 175.578201,337.468750 
	C177.194138,337.291565 179.168503,334.832092 179.849243,332.969421 
	C180.887207,330.129242 179.345306,328.011566 176.313461,327.017151 
	C172.649872,325.815552 168.979462,324.574829 165.451431,323.032135 
	C157.630203,319.612183 154.386078,313.305939 156.022964,305.203369 
	C157.214767,299.304016 163.184357,294.572968 170.382797,294.033691 
	C173.199234,293.822693 176.044800,293.968628 178.876556,293.999908 
	C188.144547,294.102325 193.246033,299.368988 192.866455,310.693024 
	C188.800049,310.693024 184.715652,310.693024 180.980362,310.693024 
	C179.911667,308.545746 179.326950,305.971924 177.717606,304.600098 
	C176.528152,303.586212 173.791641,303.564056 172.140930,304.173737 
	C170.808365,304.665863 169.028580,307.024078 169.296921,308.087891 
	C169.755432,309.905609 171.349167,311.978729 173.030106,312.827179 
	C176.007339,314.329956 179.413193,314.976990 182.629364,316.014221 
	C194.541351,319.855652 197.349930,331.856934 190.199432,342.004181 
	C188.645355,344.209595 184.951584,344.907227 182.121643,346.649658 
	C176.977905,347.000000 171.955811,347.000000 166.466858,347.000000 
z"/>
<path fill="#FFFFFF" opacity="1.000000" stroke="none" 
	d="
M0.999999,329.469727 
	C3.060150,332.895721 4.626757,337.189484 7.342197,340.556763 
	C9.383449,343.088013 12.899573,344.429901 15.879564,346.650635 
	C11.067604,347.000000 6.135207,347.000000 1.000000,347.000000 
	C1.000000,341.314240 1.000000,335.626831 0.999999,329.469727 
z"/>
<path fill="#FFFFFF" opacity="1.000000" stroke="none" 
	d="
M138.053528,173.004456 
	C150.315170,169.864243 162.132233,166.727615 173.697784,163.657730 
	C173.598419,152.479599 171.330154,148.833725 162.856186,145.135391 
	C156.016220,142.150177 148.606186,140.471130 140.182587,137.812973 
	C142.949646,137.474350 144.669281,136.879333 146.255997,137.128983 
	C162.856262,139.740921 177.717087,136.105392 189.967300,124.375450 
	C195.808945,118.781883 200.759445,112.266449 206.330521,106.373680 
	C207.380417,105.263168 209.455246,105.121658 211.542923,104.354485 
	C208.119568,111.692192 204.780624,118.170792 202.047699,124.895660 
	C199.260132,131.755020 199.196426,138.868240 201.082794,146.906357 
	C212.022461,138.171204 221.539719,129.789764 227.759598,118.411255 
	C229.349594,115.502541 230.630371,112.101234 230.870026,108.839310 
	C231.556564,99.494698 228.027710,96.066986 218.599030,96.001274 
	C217.280106,95.992081 215.961044,96.000000 213.884979,96.000000 
	C217.061081,92.073402 219.868256,88.602898 223.235321,84.440201 
	C228.415314,86.799530 234.233917,88.609756 239.096664,91.853096 
	C247.253967,97.293800 248.865433,106.830917 244.338974,117.187469 
	C238.303757,130.996017 228.968765,142.188019 217.143097,151.405197 
	C214.076935,153.795013 211.082962,156.277512 207.083450,159.501221 
	C213.669418,164.146606 219.967545,168.598495 226.278595,173.032013 
	C227.474136,173.871872 228.717514,174.644073 229.944717,175.438354 
	C235.693558,179.159195 236.374222,178.982849 240.985611,173.584808 
	C242.978943,171.251434 244.970535,168.155838 248.809158,171.587540 
	C231.891617,191.326950 211.762451,206.596024 186.161499,213.288162 
	C160.996933,219.866226 137.852966,216.110550 118.778366,197.088287 
	C115.050865,193.371017 112.641289,188.352783 109.464371,184.052414 
	C108.239899,182.394928 106.812943,180.623169 105.061485,179.666306 
	C98.764320,176.225906 93.215828,171.919754 92.922256,164.317642 
	C92.739296,159.579819 94.374268,154.706696 95.632195,150.011871 
	C96.103859,148.251541 97.553947,146.507950 99.007568,145.295990 
	C108.334984,137.519211 110.355103,125.441612 116.551048,115.822220 
	C127.310493,99.117844 141.101517,85.476997 158.264633,75.717590 
	C162.161011,73.501999 168.336365,74.949417 173.424835,75.285164 
	C177.434387,75.549728 181.385681,76.697189 185.506088,77.479706 
	C171.774368,83.261368 159.304016,91.202515 148.879150,101.795326 
	C135.250580,115.643448 125.934448,132.202530 123.264961,151.602890 
	C122.222229,159.180923 123.950119,167.140198 124.431427,175.182144 
	C129.634247,174.323746 133.621597,173.665878 138.053528,173.004456 
M165.052078,196.660889 
	C167.462631,190.289719 169.873184,183.918533 172.276764,177.565781 
	C158.061127,180.390930 144.525803,183.080872 129.795593,186.008270 
	C133.169037,189.097992 135.765366,191.412689 138.291992,193.801102 
	C149.061493,203.981537 162.319977,207.932114 176.632706,207.779861 
	C183.636566,207.705353 190.730865,205.762650 197.582611,203.917023 
	C211.855942,200.072281 223.225098,191.334061 234.185822,181.432114 
	C224.016312,175.168030 213.503326,171.038208 202.292542,169.161438 
	C197.110703,168.293961 191.214050,167.779480 187.181427,172.529602 
	C183.515762,176.847458 180.213837,181.498535 177.023438,186.187698 
	C174.478531,189.928131 172.587967,194.129654 169.894043,197.744186 
	C168.937988,199.026962 166.469330,199.182358 164.691208,199.852417 
	C164.772522,199.051392 164.853836,198.250351 165.052078,196.660889 
M98.323120,155.171478 
	C97.964218,156.238388 97.548714,157.290024 97.255608,158.374710 
	C95.392105,165.270844 99.197357,171.905563 104.768204,172.585327 
	C104.392403,164.835999 104.011673,156.985092 103.630943,149.134201 
	C103.290398,149.003952 102.949844,148.873703 102.609299,148.743454 
	C101.366714,150.690201 100.124130,152.636963 98.323120,155.171478 
z"/>
<path fill="#FFFFFF" opacity="1.000000" stroke="none" 
	d="
M180.922058,121.572449 
	C178.067307,125.990982 172.657715,128.166611 168.438995,126.804054 
	C164.777695,125.621552 160.790482,119.886688 161.002838,116.108482 
	C161.241867,111.856026 165.858093,106.858528 170.319748,106.022087 
	C174.279877,105.279671 180.240204,108.081276 181.431976,112.192360 
	C182.233505,114.957268 181.325806,118.217674 180.922058,121.572449 
z"/>
<path fill="#0A4D7F" opacity="1.000000" stroke="none" 
	d="
M277.184418,296.415222 
	C280.403809,295.809418 283.387054,294.579620 286.490509,293.892548 
	C295.680664,291.857849 302.351807,297.335541 302.104462,305.707184 
	C301.712585,318.969147 302.000000,332.251129 302.000000,345.760559 
	C297.218475,345.760559 292.826752,345.760559 288.000000,345.760559 
	C288.000000,334.131409 287.915771,322.693085 288.049896,311.257294 
	C288.091614,307.700470 288.097778,304.412323 283.535339,304.060455 
	C280.322968,303.812653 277.053741,307.813568 277.023895,311.973877 
	C276.951111,322.124725 276.999908,332.276489 276.999725,342.427887 
	C276.999725,343.406769 276.999725,344.385620 276.999725,345.681915 
	C272.381073,345.681915 267.989075,345.681915 263.294312,345.681915 
	C263.294312,329.011505 263.294312,312.297821 263.294312,294.605042 
	C267.901855,295.087067 272.452545,295.563141 277.184418,296.415222 
z"/>
<path fill="#0A4D7F" opacity="1.000000" stroke="none" 
	d="
M200.000000,297.000549 
	C200.000000,290.526733 200.000000,284.552795 200.000000,278.291443 
	C204.678528,278.291443 209.075241,278.291443 213.941940,278.291443 
	C213.941940,296.738617 213.941940,315.139709 213.941940,333.826111 
	C222.011093,333.826111 229.626251,333.826111 237.619583,333.826111 
	C237.619583,337.834656 237.619583,341.566620 237.619583,345.652679 
	C225.445450,345.652679 213.044861,345.652679 200.000000,345.652679 
	C200.000000,329.685638 200.000000,313.593018 200.000000,297.000549 
z"/>
<path fill="#0A4D7F" opacity="1.000000" stroke="none" 
	d="
M65.000000,285.076416 
	C65.000000,305.506195 65.000000,325.443848 65.000000,345.690247 
	C60.364544,345.690247 55.973808,345.690247 51.288620,345.690247 
	C51.288620,323.347229 51.288620,300.981567 51.288620,278.307312 
	C55.640266,278.307312 60.030937,278.307312 65.000000,278.307312 
	C65.000000,280.384369 65.000000,282.484314 65.000000,285.076416 
z"/>
<path fill="#0A4D7F" opacity="1.000000" stroke="none" 
	d="
M257.000000,310.004211 
	C257.000000,322.120850 257.000000,333.738068 257.000000,345.677002 
	C252.393234,345.677002 248.004181,345.677002 243.304779,345.677002 
	C243.304779,329.047882 243.304779,312.348083 243.304779,295.323303 
	C247.606232,295.323303 251.995300,295.323303 257.000000,295.323303 
	C257.000000,299.996613 257.000000,304.750732 257.000000,310.004211 
z"/>
<path fill="#0A4D7F" opacity="1.000000" stroke="none" 
	d="
M256.999268,286.852051 
	C256.038147,288.219849 255.140717,289.778961 254.105621,289.876465 
	C250.665878,290.200439 247.176620,289.998932 243.354004,289.998932 
	C243.354004,286.133453 243.354004,282.416260 243.354004,278.346680 
	C247.536469,278.346680 251.918503,278.346680 256.999878,278.346680 
	C256.999878,280.893524 256.999878,283.633698 256.999268,286.852051 
z"/>
<path fill="#FFFFFF" opacity="1.000000" stroke="none" 
	d="
M83.503479,334.962891 
	C82.275230,324.824005 84.470612,325.026398 94.777885,322.185455 
	C95.206230,327.645935 95.918785,333.236206 90.463264,336.722504 
	C88.248878,338.137634 85.567474,337.780151 83.503479,334.962891 
z"/>
<path fill="#0A4D7F" opacity="1.000000" stroke="none" 
	d="
M164.993622,197.055115 
	C164.853836,198.250351 164.772522,199.051392 164.691208,199.852417 
	C166.469330,199.182358 168.937988,199.026962 169.894043,197.744186 
	C172.587967,194.129654 174.478531,189.928131 177.023438,186.187698 
	C180.213837,181.498535 183.515762,176.847458 187.181427,172.529602 
	C191.214050,167.779480 197.110703,168.293961 202.292542,169.161438 
	C213.503326,171.038208 224.016312,175.168030 234.185822,181.432114 
	C223.225098,191.334061 211.855942,200.072281 197.582611,203.917023 
	C190.730865,205.762650 183.636566,207.705353 176.632706,207.779861 
	C162.319977,207.932114 149.061493,203.981537 138.291992,193.801102 
	C135.765366,191.412689 133.169037,189.097992 129.795593,186.008270 
	C144.525803,183.080872 158.061127,180.390930 172.276764,177.565781 
	C169.873184,183.918533 167.462631,190.289719 164.993622,197.055115 
z"/>
<path fill="#0A4D7F" opacity="1.000000" stroke="none" 
	d="
M98.602341,154.877594 
	C100.124130,152.636963 101.366714,150.690201 102.609299,148.743454 
	C102.949844,148.873703 103.290398,149.003952 103.630943,149.134201 
	C104.011673,156.985092 104.392403,164.835999 104.768204,172.585327 
	C99.197357,171.905563 95.392105,165.270844 97.255608,158.374710 
	C97.548714,157.290024 97.964218,156.238388 98.602341,154.877594 
z"/>
</svg>